<svg xmlns="http://www.w3.org/2000/svg" width="220" height="69" viewBox="0 0 220 69" fill="none">
  <rect y="0.952393" width="219.692" height="68" rx="16" fill="#F63440"/>
  <path d="M35.4544 23.4283V18.587H39.7477V17.1425H35.4544V13.7775H39.8862V12.3171H34.0002V23.4283H35.4544Z" fill="white"/>
  <path d="M41.914 14.206C42.371 14.206 42.7311 13.7775 42.7311 13.2378C42.7311 12.714 42.371 12.2854 41.914 12.2854C41.4431 12.2854 41.0692 12.714 41.0692 13.2378C41.0692 13.7775 41.4431 14.206 41.914 14.206ZM42.6065 15.333H41.2077V23.4283H42.6065V15.333Z" fill="white"/>
  <path d="M50.1575 18.2537C50.1575 16.5235 49.0634 15.1584 47.443 15.1584C46.5982 15.1584 45.8641 15.5552 45.3655 16.2219V15.333H43.9667V23.4283H45.3655V18.6187C45.3655 17.4124 46.0857 16.6029 47.0967 16.6029C48.0939 16.6029 48.7587 17.3965 48.7587 18.5711V23.4283H50.1575V18.2537Z" fill="white"/>
  <path d="M58.8677 23.4283V12.3171H57.4689V16.3489C56.8319 15.6029 55.9455 15.1584 54.976 15.1584C52.8986 15.1584 51.2505 17.0473 51.2505 19.3965C51.2505 21.7298 52.8847 23.6187 54.976 23.6187C55.9593 23.6187 56.8457 23.1584 57.4828 22.4124V23.4283H58.8677ZM57.4966 19.3965C57.4966 20.9521 56.4164 22.206 55.073 22.206C53.7296 22.206 52.6493 20.9521 52.6493 19.3965C52.6493 17.8251 53.7296 16.587 55.073 16.587C56.4164 16.587 57.4966 17.8251 57.4966 19.3965Z" fill="white"/>
  <path d="M62.9963 20.5076C62.9963 22.2378 64.0904 23.587 65.7108 23.587C66.5556 23.587 67.3035 23.1902 67.7882 22.5235V23.4283H69.187V15.333H67.7882V20.1425C67.7882 21.333 67.0681 22.1743 66.057 22.1743C65.0599 22.1743 64.3951 21.333 64.3951 20.206V15.333H62.9963V20.5076Z" fill="white"/>
  <path d="M73.2023 23.6029C74.7812 23.6029 75.7922 22.5552 75.7922 21.1584C75.7922 19.9997 75.1412 19.2219 73.8394 18.841L72.6206 18.4759C71.9559 18.2854 71.6096 17.9362 71.6096 17.4283C71.6096 16.8568 72.0112 16.4441 72.6899 16.4441C73.4101 16.4441 74.1164 16.9203 74.2826 17.841H75.626C75.4321 16.3171 74.3518 15.1584 72.7037 15.1584C71.2772 15.1584 70.2385 16.1108 70.2385 17.587C70.2385 18.7457 70.8894 19.5076 72.1497 19.8727L73.4516 20.2378C74.1164 20.4441 74.4211 20.7933 74.4211 21.2854C74.4211 21.9044 73.9502 22.3171 73.1885 22.3171C72.3159 22.3171 71.6235 21.841 71.4573 20.9203H70.1139C70.3632 22.46 71.485 23.6029 73.2023 23.6029Z" fill="white"/>
  <path d="M86.8637 19.3806C86.8637 17.0473 85.174 15.1584 83.0689 15.1584C80.9638 15.1584 79.2741 17.0473 79.2741 19.3806C79.2741 21.714 80.9638 23.6187 83.0689 23.6187C85.174 23.6187 86.8637 21.714 86.8637 19.3806ZM85.4649 19.3806C85.4649 20.9521 84.3985 22.1902 83.0689 22.1902C81.7393 22.1902 80.6729 20.9521 80.6729 19.3806C80.6729 17.8251 81.7393 16.587 83.0689 16.587C84.3985 16.587 85.4649 17.8251 85.4649 19.3806Z" fill="white"/>
  <path d="M94.154 18.2537C94.154 16.5235 93.0599 15.1584 91.4395 15.1584C90.5947 15.1584 89.8607 15.5552 89.3621 16.2219V15.333H87.9633V23.4283H89.3621V18.6187C89.3621 17.4124 90.0823 16.6029 91.0933 16.6029C92.0904 16.6029 92.7552 17.3965 92.7552 18.5711V23.4283H94.154V18.2537Z" fill="white"/>
  <path d="M164.182 27.5492H158.778C158.474 27.5492 158.322 27.6969 158.322 27.9923V48.7428C158.322 49.7767 157.979 50.552 157.522 51.143C157.066 51.7339 156.457 51.8814 155.696 51.8814C154.935 51.8814 154.288 51.5859 153.831 51.143C153.375 50.552 153.07 49.7767 153.07 48.7428V27.9923C153.07 27.6969 152.766 27.5492 152.613 27.5492H147.172C146.867 27.5492 146.715 27.6969 146.715 27.9923V48.8907C146.715 51.586 147.324 54.1337 149.036 55.7951C150.711 57.4568 153.032 58.3429 155.696 58.3429C158.474 58.3429 160.795 57.4569 162.355 55.7951C164.03 54.1708 164.676 51.7708 164.676 48.8907V27.9923C164.829 27.8448 164.524 27.5492 164.182 27.5492ZM184.921 42.2817C185.834 41.3953 187.547 39.2908 187.547 36.5585C187.547 33.3833 186.291 31.4633 185.34 30.3923C183.627 28.62 181.344 27.6969 178.68 27.6969H170.156C169.814 27.6969 169.662 27.9923 169.662 28.1399V57.4568C169.662 57.7521 169.966 57.9 170.156 57.9H179.175C181.953 57.9 184.579 56.8661 186.291 54.7246C187.204 53.543 188.308 51.5489 188.308 48.5585C188.003 44.9769 185.72 42.8723 184.921 42.2817ZM175.94 33.7153H178.719C179.48 33.7153 180.088 33.8628 180.545 34.4537C181.04 34.9337 181.192 35.6723 181.192 36.5953C181.192 37.5182 181.04 38.2196 180.545 38.8477C180.088 39.2906 179.48 39.5861 178.871 39.5861H176.093V33.7153H175.94ZM180.887 50.9952C180.431 51.586 179.822 51.7338 178.871 51.7338H175.788V45.3828H178.871C179.632 45.3828 180.241 45.7151 180.697 46.1585C181.192 46.7491 181.496 47.4875 181.496 48.4106C181.648 49.629 181.382 50.3676 180.887 50.9952ZM70.684 44.8291C71.2929 44.3861 71.7876 44.0907 72.2442 43.463C73.3097 42.2816 74.7176 40.1767 74.7176 36.8537C74.7176 33.6783 73.4619 31.6107 72.2442 30.3923C70.684 28.62 68.3626 27.6969 65.737 27.5492H56.7563C56.4519 27.5492 56.2997 27.8448 56.2997 27.9923V57.2724C56.2997 57.5677 56.6041 57.7154 56.7563 57.7154H62.1599C62.4643 57.7154 62.6166 57.4198 62.6166 57.2724V46.4538H64.4813L67.868 57.5677C67.868 57.7154 68.2105 57.863 68.3628 57.863H74.0708C74.223 57.863 74.3752 57.7154 74.5274 57.7154C74.6796 57.7154 74.6796 57.4198 74.6796 57.2724L70.684 44.8291ZM67.2591 39.4012C66.8025 39.9924 66.0414 40.3243 65.09 40.3243H62.4642V33.7153H65.09C66.0032 33.7153 66.7642 34.0107 67.2591 34.6014C67.8679 35.2293 68.0582 35.9677 68.0582 37.0016C68.0582 38.0722 67.906 38.8105 67.2591 39.4012ZM116.463 42.2817C117.414 41.3953 119.088 39.2908 119.088 36.5585C119.088 33.3833 117.871 31.4633 116.919 30.3923C115.207 28.62 112.885 27.6969 110.26 27.6969H101.774C101.469 27.6969 101.317 27.9923 101.317 28.1399V57.4568C101.317 57.7521 101.622 57.9 101.774 57.9H110.755C113.532 57.9 116.158 56.8661 117.909 54.7246C118.822 53.543 119.925 51.5489 119.925 48.5585C119.735 44.9769 117.414 42.8723 116.463 42.2817ZM107.52 33.7153H110.298C111.059 33.7153 111.668 33.8628 112.125 34.4537C112.581 34.9337 112.733 35.6723 112.733 36.5953C112.733 37.5182 112.581 38.2196 112.125 38.8477C111.668 39.2906 111.059 39.5861 110.45 39.5861H107.672V33.7153H107.52ZM112.619 50.9952C112.163 51.586 111.553 51.7338 110.602 51.7338H107.52V45.3828H110.602C111.363 45.3828 111.972 45.7151 112.429 46.1585C112.885 46.7491 113.228 47.4875 113.228 48.4106C113.266 49.629 113.114 50.3676 112.619 50.9952ZM42.9429 27.1062C40.1648 27.1062 37.8437 27.9923 36.2835 29.6537C34.609 31.3153 34.0002 33.6783 34.0002 36.5584V49.0381C34.0002 51.7339 34.609 54.2811 36.2835 55.943C37.9958 57.6047 40.3171 58.4908 42.9429 58.4908C45.7207 58.4908 48.08 57.6048 49.6402 55.943C51.3147 54.3182 51.9235 51.9183 51.9235 49.0381V42.1704C51.9235 41.8384 51.619 41.5431 51.3147 41.5431H43.4375C43.0952 41.5431 42.7907 41.8384 42.7907 42.1704V47.266C42.7907 47.5613 43.0952 47.8568 43.4375 47.8568H45.4545V49.0752C45.4545 50.1091 45.15 51.0322 44.6935 51.6231C44.2366 52.2139 43.5899 52.3615 42.8287 52.3615C42.0677 52.3615 41.4588 52.0662 40.9642 51.6231C40.5075 51.0322 40.2032 50.1093 40.2032 49.0752V36.7433C40.2032 35.6723 40.5075 34.7492 40.9642 34.1951C41.4589 33.6043 42.0677 33.4568 42.8287 33.4568C43.5899 33.4568 44.2367 33.7522 44.6935 34.1951C45.1501 34.7859 45.4545 35.6723 45.4545 36.7433V37.9247C45.4545 38.2198 45.7588 38.4045 45.9111 38.4045H51.3148C51.6191 38.4045 51.7714 38.2198 51.7714 37.9247V36.7433C51.7714 34.0475 51.1626 31.4999 49.4502 29.8384C48.0801 27.9923 45.5685 27.1062 42.9429 27.1062ZM95.9136 27.5492H90.51C90.2055 27.5492 90.0532 27.6969 90.0532 27.9923V48.7428C90.0532 49.7767 89.7109 50.552 89.2542 51.143C88.7975 51.7339 88.1886 51.8814 87.4276 51.8814C86.6666 51.8814 86.0196 51.5859 85.563 51.143C85.1064 50.552 84.8021 49.7767 84.8021 48.7428V27.9923C84.8021 27.6969 84.4595 27.5492 84.3073 27.5492H78.9038C78.5993 27.5492 78.4471 27.6969 78.4471 27.9923V48.8907C78.4471 51.586 79.094 54.1337 80.7683 55.7951C82.4807 57.4568 84.8021 58.3429 87.4277 58.3429C90.2057 58.3429 92.565 57.4569 94.0871 55.7951C95.7994 54.1708 96.4083 51.7708 96.4083 48.8907V27.9923C96.3703 27.8448 96.218 27.5492 95.9136 27.5492ZM141.426 27.5492H136.022C135.718 27.5492 135.566 27.8448 135.566 27.9923V39.4012H130.162V27.9923C130.162 27.6969 129.858 27.5492 129.705 27.5492H124.302C123.997 27.5492 123.845 27.8448 123.845 27.9923V57.2724C123.845 57.5677 124.15 57.7154 124.302 57.7154H129.705C130.01 57.7154 130.162 57.4198 130.162 57.2724V45.5678H135.566V57.2724C135.566 57.5677 135.87 57.7154 136.022 57.7154H141.426C141.73 57.7154 141.883 57.4198 141.883 57.2724V27.9923C141.883 27.8448 141.73 27.5492 141.426 27.5492Z" fill="white"/>
</svg>