<svg xmlns="http://www.w3.org/2000/svg" width="110" height="110" viewBox="0 0 110 110" fill="none">
  <path d="M77.2285 96.7085C78.3743 95.5627 78.9473 94.206 78.9473 92.6385C78.9473 91.071 78.3743 89.7159 77.2285 88.5731L43.6556 55.0002L77.3431 21.3127C78.4125 20.2432 78.9473 18.9064 78.9473 17.3022C78.9473 15.6981 78.3743 14.3231 77.2285 13.1772C76.0827 12.0314 74.726 11.4585 73.1585 11.4585C71.591 11.4585 70.2359 12.0314 69.0931 13.1772L30.5931 51.7918C30.1348 52.2502 29.8093 52.7467 29.6168 53.2814C29.4243 53.8161 29.3296 54.389 29.3327 55.0002C29.3327 55.6113 29.4289 56.1842 29.6214 56.7189C29.8139 57.2536 30.1378 57.7502 30.5931 58.2085L69.2077 96.8231C70.2771 97.8925 71.5956 98.4272 73.1631 98.4272C74.7306 98.4272 76.0857 97.8543 77.2285 96.7085Z" fill="#7B7879" stroke="white" stroke-width="3"/>
</svg>