<svg xmlns="http://www.w3.org/2000/svg" width="110" height="110" viewBox="0 0 110 110" fill="none">
  <path d="M32.7705 96.7085C31.6247 95.5627 31.0518 94.206 31.0518 92.6385C31.0518 91.071 31.6247 89.7159 32.7705 88.5731L66.3434 55.0002L32.6559 21.3127C31.5865 20.2432 31.0518 18.9064 31.0518 17.3022C31.0518 15.6981 31.6247 14.3231 32.7705 13.1772C33.9163 12.0314 35.273 11.4585 36.8405 11.4585C38.408 11.4585 39.7631 12.0314 40.9059 13.1772L79.4059 51.7918C79.8643 52.2502 80.1897 52.7467 80.3822 53.2814C80.5747 53.8161 80.6694 54.389 80.6663 55.0002C80.6663 55.6113 80.5701 56.1842 80.3776 56.7189C80.1851 57.2536 79.8612 57.7502 79.4059 58.2085L40.7913 96.8231C39.7219 97.8925 38.4034 98.4272 36.8359 98.4272C35.2684 98.4272 33.9133 97.8543 32.7705 96.7085Z" fill="#7B7879" stroke="white" stroke-width="3"/>
</svg>