<svg width="18" height="24" viewBox="0 0 18 24" fill="none" xmlns="http://www.w3.org/2000/svg">
<g id="yelp">
<path id="Vector" fill-rule="evenodd" clip-rule="evenodd" d="M1.96599 11.2639L6.63686 13.5421C7.53503 13.9806 7.39657 15.3016 6.42639 15.5434L1.38444 16.8007C0.755813 16.9576 0.134569 16.5237 0.0607215 15.8794C-0.0946637 14.5323 0.0490626 13.1676 0.481653 11.8824C0.530474 11.7383 0.609446 11.6063 0.713307 11.4951C0.817169 11.3839 0.943535 11.2961 1.08399 11.2376C1.22444 11.179 1.37574 11.1511 1.52783 11.1557C1.67992 11.1602 1.82929 11.1971 1.96599 11.2639ZM3.83618 20.8789L7.31256 17.0176C7.98089 16.2745 9.21322 16.773 9.17722 17.7718L8.99629 22.966C8.99092 23.1185 8.95303 23.2682 8.88517 23.4049C8.81731 23.5415 8.72103 23.6622 8.60279 23.7586C8.48455 23.8551 8.34706 23.9252 8.19953 23.9643C8.05201 24.0034 7.89784 24.0105 7.74734 23.9851C6.41151 23.76 5.14096 23.2459 4.0245 22.4786C3.89883 22.3922 3.79307 22.28 3.71429 22.1494C3.63551 22.0188 3.58554 21.8729 3.56771 21.7215C3.54988 21.57 3.56461 21.4165 3.61091 21.2712C3.65721 21.1259 3.73402 20.9921 3.83618 20.8789ZM12.0785 15.741L17.0198 17.3471C17.6346 17.5465 17.9346 18.2425 17.6568 18.8259C17.0734 20.0487 16.2301 21.1293 15.1857 21.9922C15.068 22.0894 14.9309 22.1603 14.7835 22.2003C14.6362 22.2402 14.482 22.2482 14.3313 22.2237C14.1807 22.1992 14.037 22.1429 13.9098 22.0584C13.7827 21.9739 13.6751 21.8632 13.5942 21.7337L10.8397 17.3259C10.3099 16.4785 11.1277 15.4317 12.0785 15.741ZM17.1038 12.5886L12.109 14.0212C11.148 14.2963 10.3671 13.2218 10.9256 12.3929L13.8324 8.08479C13.9174 7.95865 14.0282 7.85206 14.1576 7.77211C14.287 7.69216 14.4319 7.64069 14.5828 7.62113C14.7336 7.60157 14.8869 7.61436 15.0324 7.65865C15.1778 7.70295 15.3122 7.77773 15.4266 7.87802C16.4438 8.77473 17.2507 9.88483 17.7897 11.1292C17.8507 11.2691 17.8812 11.4204 17.879 11.573C17.8769 11.7256 17.8422 11.8761 17.7773 12.0142C17.7124 12.1523 17.6187 12.275 17.5026 12.3741C17.3864 12.4731 17.2505 12.5463 17.1038 12.5886ZM5.43222 0.468327C4.53312 0.708332 3.67557 1.0268 2.86417 1.41358C2.7311 1.47743 2.61268 1.56811 2.51633 1.67991C2.41998 1.79171 2.34778 1.92222 2.30427 2.06325C2.26075 2.20428 2.24686 2.35278 2.26347 2.49944C2.28008 2.64609 2.32682 2.78773 2.40077 2.91545L7.28303 11.371C7.83042 12.32 9.28061 11.9313 9.28061 10.8356V1.07203C9.28078 0.924464 9.25044 0.778454 9.19151 0.643164C9.13258 0.507875 9.04632 0.386227 8.93815 0.285854C8.82997 0.185481 8.70222 0.108551 8.56291 0.0598906C8.42359 0.0112305 8.27573 -0.00810907 8.12858 0.00308582C7.23318 0.0741642 6.33131 0.227398 5.43222 0.468327Z" fill="black"/>
</g>
</svg>
