<svg xmlns="http://www.w3.org/2000/svg" width="21" height="28" viewBox="0 0 21 28" fill="none">
  <path fill-rule="evenodd" clip-rule="evenodd" d="M2.29366 13.1413L7.743 15.7992C8.79087 16.3107 8.62933 17.8518 7.49746 18.134L1.61518 19.6008C0.881782 19.7839 0.156997 19.2777 0.0708417 18.526C-0.110441 16.9544 0.0572397 15.3622 0.561929 13.8628C0.618886 13.6947 0.71102 13.5406 0.832192 13.4109C0.953363 13.2812 1.10079 13.1788 1.26465 13.1105C1.42851 13.0422 1.60504 13.0096 1.78247 13.015C1.9599 13.0203 2.13417 13.0633 2.29366 13.1413ZM4.47555 24.3587L8.53133 19.8539C9.31103 18.9869 10.7488 19.5685 10.7068 20.7337L10.4957 26.7937C10.4894 26.9716 10.4452 27.1462 10.366 27.3057C10.2869 27.4651 10.1745 27.6059 10.0366 27.7184C9.89864 27.831 9.73824 27.9128 9.56612 27.9584C9.39401 28.0039 9.21414 28.0122 9.03857 27.9827C7.4801 27.72 5.99779 27.1202 4.69525 26.2251C4.54863 26.1243 4.42524 25.9933 4.33334 25.841C4.24143 25.6886 4.18313 25.5184 4.16233 25.3417C4.14153 25.165 4.15871 24.9859 4.21273 24.8164C4.26675 24.6468 4.35635 24.4908 4.47555 24.3587ZM14.0916 18.3645L19.8565 20.2383C20.5737 20.471 20.9237 21.283 20.5996 21.9636C19.919 23.3901 18.9351 24.6508 17.7166 25.6575C17.5793 25.7709 17.4193 25.8537 17.2474 25.9003C17.0756 25.9469 16.8957 25.9562 16.7199 25.9277C16.5441 25.8991 16.3765 25.8333 16.2281 25.7348C16.0798 25.6362 15.9543 25.507 15.8599 25.356L12.6463 20.2136C12.0282 19.2249 12.9823 18.0037 14.0916 18.3645ZM19.9545 14.6867L14.1271 16.3581C13.006 16.679 12.0949 15.4255 12.7465 14.4584L16.1378 9.43226C16.2369 9.28509 16.3663 9.16074 16.5172 9.06746C16.6682 8.97419 16.8372 8.91414 17.0132 8.89132C17.1892 8.86849 17.368 8.88342 17.5377 8.93509C17.7075 8.98677 17.8643 9.07402 17.9977 9.19102C19.1845 10.2372 20.1258 11.5323 20.7547 12.984C20.8258 13.1473 20.8614 13.3238 20.8589 13.5019C20.8564 13.6799 20.8159 13.8554 20.7402 14.0166C20.6644 14.1777 20.5552 14.3209 20.4197 14.4364C20.2842 14.552 20.1256 14.6373 19.9545 14.6867ZM6.33759 0.546381C5.28864 0.826387 4.28816 1.19793 3.34153 1.64917C3.18629 1.72367 3.04813 1.82946 2.93572 1.9599C2.82331 2.09033 2.73908 2.24259 2.68831 2.40713C2.63755 2.57166 2.62134 2.74492 2.64072 2.91601C2.66009 3.0871 2.71463 3.25235 2.8009 3.40136L8.49686 13.2662C9.13549 14.3733 10.8274 13.9199 10.8274 12.6416V1.2507C10.8276 1.07854 10.7922 0.908196 10.7234 0.750358C10.6547 0.592521 10.554 0.450598 10.4278 0.333496C10.3016 0.216395 10.1526 0.126643 9.99006 0.0698724C9.82753 0.0131022 9.65501 -0.00946058 9.48335 0.00360012C8.43871 0.0865249 7.38653 0.265298 6.33759 0.546381Z" fill="#4F4B4C"/>
</svg>