<svg xmlns="http://www.w3.org/2000/svg" width="164" height="163" viewBox="0 0 164 163" fill="none">
  <path d="M103.76 81C103.76 85.3037 102.484 89.5108 100.093 93.0892C97.7021 96.6676 94.3036 99.4567 90.3275 101.104C86.3514 102.751 81.9762 103.182 77.7551 102.342C73.5341 101.502 69.6569 99.4298 66.6137 96.3866C63.5705 93.3435 61.498 89.4662 60.6584 85.2452C59.8188 81.0241 60.2497 76.6489 61.8967 72.6728C63.5436 68.6967 66.3327 65.2982 69.9111 62.9072C73.4895 60.5162 77.6966 59.24 82.0003 59.24C87.7659 59.2579 93.2902 61.5563 97.3671 65.6332C101.444 69.7101 103.742 75.2344 103.76 81ZM150 51.08V110.92C150 121.019 145.988 130.705 138.847 137.847C131.706 144.988 122.02 149 111.92 149H52.0803C41.9809 149 32.2951 144.988 25.1537 137.847C18.0123 130.705 14.0003 121.019 14.0003 110.92V51.08C14.0003 40.9806 18.0123 31.2948 25.1537 24.1534C32.2951 17.012 41.9809 13 52.0803 13H111.92C122.02 13 131.706 17.012 138.847 24.1534C145.988 31.2948 150 40.9806 150 51.08ZM114.64 81C114.64 74.5444 112.726 68.2338 109.139 62.8662C105.553 57.4986 100.455 53.315 94.4911 50.8446C88.5269 48.3741 81.9641 47.7277 75.6326 48.9872C69.301 50.2466 63.4851 53.3553 58.9203 57.92C54.3556 62.4848 51.2469 68.3007 49.9875 74.6323C48.7281 80.9638 49.3744 87.5266 51.8449 93.4908C54.3153 99.455 58.4989 104.553 63.8665 108.139C69.2341 111.726 75.5447 113.64 82.0003 113.64C90.657 113.64 98.9591 110.201 105.08 104.08C111.201 97.9588 114.64 89.6567 114.64 81ZM125.52 45.64C125.52 44.0261 125.042 42.4485 124.145 41.1066C123.248 39.7646 121.974 38.7188 120.483 38.1011C118.992 37.4835 117.351 37.3219 115.768 37.6368C114.185 37.9516 112.732 38.7288 111.59 39.87C110.449 41.0112 109.672 42.4652 109.357 44.0481C109.042 45.6309 109.204 47.2717 109.821 48.7627C110.439 50.2537 111.485 51.5282 112.827 52.4248C114.169 53.3214 115.746 53.8 117.36 53.8C119.524 53.8 121.6 52.9403 123.13 51.41C124.661 49.8797 125.52 47.8042 125.52 45.64Z" fill="#938ACB"/>
</svg>