<svg xmlns="http://www.w3.org/2000/svg" width="31" height="41" viewBox="0 0 31 41" fill="none">
  <path d="M15.5 9.52415C16.8935 9.52415 18.2556 9.94309 19.4142 10.728C20.5729 11.5129 21.4759 12.6285 22.0092 13.9337C22.5424 15.239 22.6819 16.6752 22.4101 18.0608C22.1382 19.4465 21.4672 20.7193 20.4819 21.7182C19.4966 22.7172 18.2412 23.3975 16.8745 23.6732C15.5078 23.9488 14.0912 23.8073 12.8038 23.2667C11.5164 22.726 10.4161 21.8105 9.64192 20.6358C8.86776 19.4611 8.45455 18.0801 8.45455 16.6673C8.4592 14.7743 9.20298 12.9601 10.5232 11.6215C11.8435 10.283 13.6329 9.52887 15.5 9.52415ZM15.5 20.9532C16.3361 20.9532 17.1534 20.7018 17.8485 20.2309C18.5437 19.7599 19.0855 19.0906 19.4055 18.3074C19.7254 17.5243 19.8092 16.6625 19.646 15.8312C19.4829 14.9998 19.0803 14.2361 18.4891 13.6367C17.8979 13.0373 17.1447 12.6291 16.3247 12.4638C15.5047 12.2984 14.6547 12.3833 13.8823 12.7077C13.1099 13.032 12.4496 13.5814 11.9852 14.2862C11.5207 14.991 11.2727 15.8196 11.2727 16.6673C11.2774 17.8025 11.7242 18.8899 12.516 19.6927C13.3078 20.4954 14.3803 20.9485 15.5 20.9532ZM15.5 0.952393C19.6094 0.957119 23.5492 2.61431 26.455 5.5604C29.3608 8.50649 30.9953 12.5009 31 16.6673C31 22.2746 28.446 28.2213 23.6023 33.8465C21.425 36.3945 18.9798 38.694 16.3102 40.7039C16.0702 40.866 15.7883 40.9524 15.5 40.9524C15.2117 40.9524 14.9298 40.866 14.6898 40.7039C12.0124 38.697 9.56111 36.3973 7.38011 33.8465C2.55398 28.2213 0 22.2746 0 16.6673C0.00466156 12.5009 1.63919 8.50649 4.54499 5.5604C7.4508 2.61431 11.3906 0.957119 15.5 0.952393ZM15.5 37.7395C18.4062 35.418 28.1818 26.882 28.1818 16.6673C28.1818 13.2572 26.8457 9.98684 24.4674 7.57556C22.0891 5.16429 18.8634 3.80965 15.5 3.80965C12.1366 3.80965 8.9109 5.16429 6.5326 7.57556C4.1543 9.98684 2.81818 13.2572 2.81818 16.6673C2.81818 26.882 12.5938 35.418 15.5 37.7395Z" fill="#4F4B4C"/>
</svg>