<svg xmlns="http://www.w3.org/2000/svg" width="40" height="41" viewBox="0 0 40 41" fill="none">
  <path d="M11.0333 18.9357C13.4333 23.6524 17.3 27.5024 22.0167 29.9191L25.6833 26.2524C26.1333 25.8024 26.8 25.6524 27.3833 25.8524C29.25 26.4691 31.2667 26.8024 33.3333 26.8024C34.25 26.8024 35 27.5524 35 28.4691V34.2857C35 35.2024 34.25 35.9524 33.3333 35.9524C17.6833 35.9524 5 23.2691 5 7.61906C5 6.70239 5.75 5.95239 6.66667 5.95239H12.5C13.4167 5.95239 14.1667 6.70239 14.1667 7.61906C14.1667 9.70239 14.5 11.7024 15.1167 13.5691C15.3 14.1524 15.1667 14.8024 14.7 15.2691L11.0333 18.9357Z" fill="#4F4B4C"/>
</svg>