<svg xmlns="http://www.w3.org/2000/svg" width="220" height="70" viewBox="0 0 220 70" fill="none">
  <rect y="0.952393" width="220" height="68.0952" rx="16" fill="black"/>
  <path d="M115.683 29.3252H132.87V33.8808H120.326V40.3498H132.521V44.7505H120.326V51.3288H132.87V55.8845H115.683V29.3252ZM180.334 56.3628C185.603 56.3628 188.572 53.6294 188.572 49.8756C188.572 47.2015 186.814 45.2061 183.135 44.3405L179.245 43.4795C176.987 43.0239 176.276 42.5684 176.276 41.6573C176.276 40.4774 177.365 39.753 179.371 39.753C181.545 39.753 183.156 40.3862 183.576 42.5638H188.135C187.886 38.4638 185.166 35.7577 179.649 35.7577C174.88 35.7577 171.533 37.8898 171.533 42.0217C171.533 44.8781 173.374 46.7368 177.348 47.6433L181.696 48.7321C183.412 49.0966 183.871 49.5977 183.871 50.3676C183.871 51.5931 182.575 52.363 180.481 52.363C177.849 52.363 176.343 51.7297 175.759 49.5522H171.175C171.844 53.6431 174.644 56.3628 180.334 56.3628ZM169.85 55.8662H164.918C161.823 55.8662 160.107 53.7798 160.107 51.1466V40.7142H156.638V36.268H160.124V30.6873H164.707V36.268H169.85V40.7142H164.707V49.8756C164.707 50.9188 165.376 51.42 166.423 51.42H169.85V55.8662ZM150.086 36.2771V38.0447C148.472 36.5667 146.426 35.7593 144.312 35.7668C143.047 35.738 141.789 35.9831 140.613 36.4876C139.436 36.9922 138.364 37.7461 137.46 38.7053C136.556 39.6644 135.838 40.8094 135.347 42.0731C134.857 43.3369 134.604 44.6939 134.604 46.0648C134.604 47.4357 134.857 48.7928 135.347 50.0565C135.838 51.3203 136.556 52.4653 137.46 53.4244C138.364 54.3835 139.436 55.1374 140.613 55.642C141.789 56.1466 143.047 56.3916 144.312 56.3628C146.426 56.3727 148.473 55.565 150.086 54.085V55.8571H154.657V36.268L150.086 36.2771ZM144.691 52.0623C143.594 52.0758 142.519 51.7359 141.601 51.0858C140.683 50.4356 139.965 49.5045 139.537 48.4109C139.109 47.3172 138.99 46.1104 139.197 44.9437C139.403 43.777 139.925 42.7032 140.697 41.8588C141.468 41.0143 142.453 40.4373 143.528 40.201C144.603 39.9648 145.718 40.08 146.732 40.5321C147.746 40.9841 148.613 41.7526 149.223 42.7398C149.833 43.7269 150.158 44.8883 150.158 46.0762C150.164 46.8593 150.027 47.636 149.755 48.3615C149.483 49.0869 149.081 49.7467 148.571 50.3025C148.062 50.8584 147.456 51.2993 146.789 51.5998C146.121 51.9003 145.405 52.0544 144.682 52.0532L144.691 52.0623Z" fill="#05C167"/>
  <path d="M105.481 39.9443C103.181 39.9443 101.549 41.8942 101.549 44.8872V55.8662H98.038V36.5413H101.507V38.9011C101.935 38.119 102.548 37.4751 103.283 37.0361C104.018 36.5972 104.848 36.3791 105.687 36.4046H106.949V39.9443H105.481ZM95.6116 46.2038C95.6116 40.4409 91.8269 36.1313 86.705 36.1313C85.4948 36.1402 84.2982 36.4082 83.184 36.92C82.0698 37.4318 81.06 38.1771 80.2127 39.1133C79.3654 40.0494 78.6973 41.1577 78.2469 42.3746C77.7965 43.5915 77.5726 44.8928 77.5881 46.2038C77.5881 51.9621 81.6882 56.3173 87.0372 56.3173C88.5313 56.3478 90.0104 55.9888 91.3497 55.2705C92.689 54.5522 93.8492 53.4956 94.7327 52.1899L92.1843 50.1672C91.5997 51.0511 90.8261 51.7686 89.9297 52.2581C89.0334 52.7476 88.0409 52.9946 87.0372 52.978C85.6077 52.9707 84.2279 52.4088 83.1478 51.3942C82.0678 50.3796 81.359 48.9795 81.1499 47.4475H95.62L95.6116 46.2038ZM81.2256 44.4316C81.8522 41.4841 84.0263 39.4888 86.6629 39.4888C89.2996 39.4888 91.4694 41.4841 92.0582 44.4316H81.2256ZM66.4654 36.1313C65.2919 36.1324 64.1303 36.3853 63.0476 36.8756C61.965 37.3659 60.9827 38.0837 60.1576 38.9877V29.3252H56.6463V55.8662H60.1156V53.4153C61.7963 55.2572 64.0832 56.301 66.4738 56.3173C67.7139 56.3458 68.9468 56.1058 70.1003 55.6114C71.2537 55.117 72.3043 54.3782 73.1907 53.4381C74.0771 52.4981 74.7813 51.3758 75.2621 50.137C75.7428 48.8983 75.9905 47.568 75.9905 46.2243C75.9905 44.8805 75.7428 43.5502 75.2621 42.3115C74.7813 41.0728 74.0771 39.9505 73.1907 39.0104C72.3043 38.0704 71.2537 37.3315 70.1003 36.8371C68.9468 36.3427 67.7139 36.1027 66.4738 36.1313H66.4654ZM66.2131 52.9188C64.9892 52.9251 63.7911 52.5374 62.7709 51.8049C61.7507 51.0724 60.9544 50.028 60.483 48.8044C60.0115 47.5808 59.8862 46.2331 60.1229 44.9322C60.3597 43.6313 60.9478 42.436 61.8126 41.4978C62.6775 40.5596 63.7801 39.9208 64.9806 39.6626C66.1811 39.4043 67.4253 39.5382 68.5554 40.0473C69.6855 40.5564 70.6506 41.4176 71.3282 42.5219C72.0057 43.6261 72.3652 44.9234 72.3611 46.2493C72.3622 47.1239 72.2039 47.9901 71.8952 48.7982C71.5865 49.6063 71.1336 50.3404 70.5623 50.9584C69.9911 51.5763 69.3129 52.066 68.5665 52.3993C67.8201 52.7326 67.0204 52.9029 66.2131 52.9005V52.9188ZM43.7153 52.7365C47.1047 52.7365 49.7372 49.9212 49.7372 45.7027V29.3252H53.3747V55.8662H49.7792V53.3561C48.9392 54.2966 47.9318 55.0427 46.818 55.5494C45.7041 56.056 44.507 56.3126 43.299 56.3036C38.072 56.3036 34.0476 52.1762 34.0476 45.9168V29.3252H37.7524V45.7254C37.7524 49.9667 40.2755 52.7365 43.7153 52.7365Z" fill="white"/>
  <path d="M35.5038 23.4597V18.6117H39.8032V17.1652H35.5038V13.7954H39.9419V12.3331H34.0476V23.4597H35.5038Z" fill="white"/>
  <path d="M41.9725 14.2246C42.4302 14.2246 42.7908 13.7954 42.7908 13.255C42.7908 12.7304 42.4302 12.3013 41.9725 12.3013C41.501 12.3013 41.1265 12.7304 41.1265 13.255C41.1265 13.7954 41.501 14.2246 41.9725 14.2246ZM42.6659 15.3532H41.2652V23.4597H42.6659V15.3532Z" fill="white"/>
  <path d="M50.2275 18.2779C50.2275 16.5453 49.1319 15.1783 47.5092 15.1783C46.6632 15.1783 45.9282 15.5757 45.4289 16.2433V15.3532H44.0281V23.4597H45.4289V18.6435C45.4289 17.4354 46.1501 16.6248 47.1625 16.6248C48.1611 16.6248 48.8268 17.4195 48.8268 18.5958V23.4597H50.2275V18.2779Z" fill="white"/>
  <path d="M58.95 23.4597V12.3331H57.5492V16.3705C56.9113 15.6234 56.0237 15.1783 55.0528 15.1783C52.9725 15.1783 51.3221 17.0698 51.3221 19.4223C51.3221 21.7589 52.9586 23.6505 55.0528 23.6505C56.0375 23.6505 56.9251 23.1895 57.5631 22.4424V23.4597H58.95ZM57.577 19.4223C57.577 20.9801 56.4952 22.2358 55.1499 22.2358C53.8046 22.2358 52.7229 20.9801 52.7229 19.4223C52.7229 17.8487 53.8046 16.6089 55.1499 16.6089C56.4952 16.6089 57.577 17.8487 57.577 19.4223Z" fill="white"/>
  <path d="M63.0843 20.535C63.0843 22.2676 64.18 23.6187 65.8026 23.6187C66.6486 23.6187 67.3976 23.2213 67.883 22.5537V23.4597H69.2837V15.3532H67.883V20.1694C67.883 21.3616 67.1618 22.204 66.1494 22.204C65.1508 22.204 64.4851 21.3616 64.4851 20.233V15.3532H63.0843V20.535Z" fill="white"/>
  <path d="M73.3046 23.6346C74.8857 23.6346 75.8981 22.5855 75.8981 21.1867C75.8981 20.0264 75.2463 19.2475 73.9426 18.866L72.7221 18.5004C72.0564 18.3097 71.7097 17.96 71.7097 17.4513C71.7097 16.8791 72.1119 16.4658 72.7915 16.4658C73.5127 16.4658 74.22 16.9427 74.3864 17.8646H75.7317C75.5375 16.3387 74.4558 15.1783 72.8054 15.1783C71.3769 15.1783 70.3367 16.132 70.3367 17.6103C70.3367 18.7706 70.9885 19.5336 72.2506 19.8992L73.5543 20.2648C74.22 20.4714 74.5251 20.8211 74.5251 21.3139C74.5251 21.9338 74.0536 22.3471 73.2908 22.3471C72.417 22.3471 71.7236 21.8702 71.5572 20.9483H70.2119C70.4615 22.4901 71.5849 23.6346 73.3046 23.6346Z" fill="white"/>
  <path d="M86.9851 19.4064C86.9851 17.0698 85.2931 15.1783 83.185 15.1783C81.077 15.1783 79.385 17.0698 79.385 19.4064C79.385 21.743 81.077 23.6505 83.185 23.6505C85.2931 23.6505 86.9851 21.743 86.9851 19.4064ZM85.5844 19.4064C85.5844 20.9801 84.5165 22.2199 83.185 22.2199C81.8536 22.2199 80.7857 20.9801 80.7857 19.4064C80.7857 17.8487 81.8536 16.6089 83.185 16.6089C84.5165 16.6089 85.5844 17.8487 85.5844 19.4064Z" fill="white"/>
  <path d="M94.2857 18.2779C94.2857 16.5453 93.1901 15.1783 91.5674 15.1783C90.7214 15.1783 89.9863 15.5757 89.4871 16.2433V15.3532H88.0863V23.4597H89.4871V18.6435C89.4871 17.4354 90.2082 16.6248 91.2207 16.6248C92.2192 16.6248 92.8849 17.4195 92.8849 18.5958V23.4597H94.2857V18.2779Z" fill="white"/>
</svg>